<svg width="35" height="35" viewBox="0 0 35 35" fill="none" xmlns="http://www.w3.org/2000/svg">
<path d="M7.8125 6.25H27.1875C28.2252 6.24993 29.2235 6.64694 29.9778 7.35959C30.732 8.07224 31.185 9.04649 31.2437 10.0825L31.25 10.3125V24.6875C31.2501 25.7252 30.8531 26.7235 30.1404 27.4778C29.4278 28.232 28.4535 28.685 27.4175 28.7438L27.1875 28.75H7.8125C6.77483 28.7501 5.77646 28.3531 5.02221 27.6404C4.26796 26.9278 3.815 25.9535 3.75625 24.9175L3.75 24.6875V10.3125C3.74993 9.27483 4.14694 8.27646 4.85959 7.52221C5.57224 6.76796 6.54649 6.315 7.5825 6.25625L7.8125 6.25H27.1875H7.8125ZM29.375 13.6313L17.9325 19.5813C17.8217 19.6388 17.7004 19.6737 17.5759 19.6838C17.4514 19.6939 17.3262 19.679 17.2075 19.64L17.0675 19.5813L5.625 13.6313V24.6875C5.62502 25.2365 5.83146 25.7654 6.20335 26.1692C6.57524 26.5731 7.08537 26.8223 7.6325 26.8675L7.8125 26.875H27.1875C27.7367 26.875 28.2658 26.6683 28.6696 26.2962C29.0735 25.924 29.3226 25.4136 29.3675 24.8663L29.375 24.6875V13.6313ZM27.1875 8.125H7.8125C7.26351 8.12502 6.7346 8.33146 6.33076 8.70335C5.92692 9.07524 5.67767 9.58537 5.6325 10.1325L5.625 10.3125V11.5175L17.5 17.6925L29.375 11.5175V10.3125C29.375 9.76331 29.1683 9.23424 28.7962 8.83037C28.424 8.42649 27.9136 8.17738 27.3662 8.1325L27.1875 8.125Z" fill="black" fill-opacity="0.65"/>
</svg>
