<svg width="36" height="36" viewBox="0 0 36 36" fill="none" xmlns="http://www.w3.org/2000/svg">
<path d="M34.875 11.7467C34.875 8.85375 33.5323 6.35119 31.5748 5.11538C28.9896 3.41044 23.8753 2.24944 17.9871 2.25C11.2095 2.24944 5.46019 3.78675 3.41044 5.92031C2.01938 7.28775 1.125 9.38756 1.125 11.7473C1.125 13.1299 6.552 13.5855 10.1458 13.1181C10.0918 13.2126 10.0462 13.311 9.99844 13.4083C8.86331 14.8984 7.9425 17.6051 7.35862 19.6729C5.10075 21.4824 3.627 24.9902 3.627 24.9902V29.088C3.62595 29.6894 3.86383 30.2666 4.2883 30.6927C4.71277 31.1187 5.28909 31.3587 5.8905 31.3599H5.97769V31.4792C5.97679 32.0805 6.21473 32.6576 6.63918 33.0835C7.06364 33.5094 7.63987 33.7494 8.24119 33.7506H11.3664C11.6642 33.75 11.9589 33.6909 12.2338 33.5765C12.5087 33.462 12.7584 33.2946 12.9686 33.0837C13.1788 32.8727 13.3454 32.6225 13.4588 32.3472C13.5723 32.0719 13.6305 31.777 13.6299 31.4792V31.3594H22.3689V31.4786C22.368 32.0798 22.6059 32.6568 23.0302 33.0827C23.4546 33.5087 24.0307 33.7487 24.6319 33.75H27.7571C28.0549 33.7495 28.3496 33.6903 28.6245 33.5759C28.8994 33.4615 29.1491 33.294 29.3593 33.0831C29.5695 32.8722 29.7361 32.6219 29.8495 32.3466C29.963 32.0713 30.0211 31.7764 30.0206 31.4786V31.3594H30.1078C30.4057 31.3589 30.7005 31.2997 30.9754 31.1852C31.2504 31.0708 31.5001 30.9033 31.7104 30.6923C31.9206 30.4813 32.0872 30.231 32.2007 29.9557C32.3142 29.6803 32.3724 29.3853 32.3719 29.0874V24.9896C32.3719 24.9896 30.8976 21.4813 28.6397 19.6723C28.0817 17.6962 27.216 15.1357 26.1495 13.6114C26.0812 13.4458 26.0038 13.2841 25.9177 13.1271C29.5133 13.5799 34.875 13.1203 34.875 11.7467ZM17.9871 7.083C19.1537 7.083 20.2781 7.13925 21.3682 7.227C21.1956 7.55044 21.0111 7.848 20.8575 7.94081C20.3158 8.26762 19.2212 8.47125 18 8.47125C16.7788 8.47125 15.6836 8.26819 15.1419 7.94081C14.9884 7.84744 14.8033 7.54931 14.6312 7.22475C15.7475 7.13267 16.867 7.08538 17.9871 7.083ZM10.8112 5.66944C10.9558 5.44556 11.3704 5.34938 11.8131 5.34938C12.312 5.34938 12.8469 5.47088 13.0714 5.66944C13.6868 6.21056 14.1519 7.99931 14.8511 8.42231C15.5256 8.83012 16.7625 9.03375 18 9.03375C19.2375 9.03375 20.4733 8.83012 21.1483 8.42231C21.8481 7.99931 22.3133 6.21056 22.9281 5.66944C23.1531 5.47088 23.688 5.34938 24.1869 5.34938C24.6296 5.34938 25.0447 5.445 25.1893 5.66944C25.8699 6.72525 24.4024 9.16425 23.0366 10.4456C21.6028 9.68962 19.8636 9.25594 18.081 9.25594C16.2641 9.25594 14.4793 9.7065 13.0089 10.4901C11.6319 9.22162 10.1222 6.73763 10.8112 5.66944ZM25.9476 14.337C26.2013 15.2865 26.1028 16.2343 25.7271 17.1129L24.0244 14.3342L23.2858 14.5834L24.9379 18.3893C23.5727 20.0222 21.0831 21.1787 17.9319 21.1787C12.4943 21.1787 9.09563 17.7458 10.0969 14.3376C10.9041 11.592 14.4208 9.72956 18.0833 9.72956C21.7457 9.72956 25.2129 11.5914 25.9476 14.337Z" fill="black" fill-opacity="0.65"/>
<path d="M18.0506 12.2102C16.3401 12.2102 14.8298 13.1541 14.6638 14.418C14.4804 15.804 15.9615 17.032 17.9871 17.032C20.0121 17.032 21.5246 15.8035 21.3784 14.418C21.2456 13.1541 19.7595 12.2102 18.0506 12.2102Z" fill="black" fill-opacity="0.65"/>
<path d="M17.0691 11.5319C17.6057 11.8795 18.5034 11.8795 19.0496 11.5319C19.5806 11.1938 19.5548 10.6656 19.0181 10.35C18.495 10.0435 17.6614 10.0435 17.1309 10.35C16.5848 10.6656 16.5465 11.1938 17.0691 11.5319Z" fill="black" fill-opacity="0.65"/>
<path d="M21.7069 12.7507C22.5163 12.7507 23.0985 12.3272 23.0079 11.8221C22.9219 11.3361 22.2396 10.9558 21.4841 10.9558C20.7264 10.9558 20.1414 11.3372 20.1752 11.8221C20.2101 12.3272 20.8946 12.7507 21.7069 12.7507Z" fill="black" fill-opacity="0.65"/>
<path d="M20.5493 17.2418C20.601 17.9855 21.4442 18.6138 22.4359 18.6138C23.4225 18.6138 24.1121 17.9855 23.9794 17.2418C23.8517 16.532 23.0153 15.9807 22.1079 15.9807C21.1973 15.9807 20.5003 16.5325 20.5493 17.2418Z" fill="black" fill-opacity="0.65"/>
<path d="M19.2071 17.6776C18.5248 17.1584 17.4426 17.1584 16.7484 17.6776C16.0296 18.2137 15.9626 19.1227 16.6416 19.711C17.3469 20.3202 18.5394 20.3202 19.2589 19.711C19.9553 19.1227 19.9114 18.2131 19.2071 17.6776Z" fill="black" fill-opacity="0.65"/>
<path d="M13.8926 15.9807C12.9831 15.9807 12.1331 16.5314 11.9869 17.2418C11.8344 17.9838 12.5061 18.6138 13.4955 18.6138C14.4849 18.6138 15.3467 17.9838 15.4176 17.2418C15.4845 16.532 14.8016 15.9807 13.8926 15.9807Z" fill="black" fill-opacity="0.65"/>
<path d="M13.5107 15.0553C14.1992 14.6182 14.2982 13.9376 13.7677 13.5332C13.2519 13.1411 12.3103 13.1411 11.6314 13.5332C10.9333 13.9376 10.7505 14.6182 11.2562 15.0553C11.7776 15.5059 12.8019 15.5059 13.5107 15.0553Z" fill="black" fill-opacity="0.65"/>
<path d="M14.3792 12.7507C15.1886 12.7507 15.8878 12.3266 15.9351 11.8226C15.9823 11.3361 15.4058 10.9558 14.6498 10.9558C13.8926 10.9558 13.2024 11.3361 13.1029 11.8226C12.9988 12.3266 13.5681 12.7507 14.3792 12.7507Z" fill="black" fill-opacity="0.65"/>
</svg>
